<svg xmlns="http://www.w3.org/2000/svg" xmlns:xlink="http://www.w3.org/1999/xlink" viewBox="0 0 523.83 582.23"><defs><style>.cls-1{fill:url(#linear-gradient);}</style><linearGradient id="linear-gradient" x1="13.22" y1="144.14" x2="580.11" y2="471.44" gradientUnits="userSpaceOnUse"><stop offset="0" stop-color="#2fe077"/><stop offset="0.5" stop-color="#61d2c9"/><stop offset="1" stop-color="#6a70db"/></linearGradient></defs><g id="Layer_2" data-name="Layer 2"><g id="Layer_1-2" data-name="Layer 1"><path class="cls-1" d="M523.83,244.14V176.78a36.38,36.38,0,0,0-17.1-30.85L281.19,5c-10.6-6.63-27.95-6.63-38.56,0L17.1,145.93A36.38,36.38,0,0,0,0,176.78V398.37a36.38,36.38,0,0,0,17.1,30.85L248.64,573.93a54.61,54.61,0,0,0,28.92,8.3H505.64A18.18,18.18,0,0,0,523.83,564V314.85a18.18,18.18,0,0,0-18.19-18.19H343.37a10.32,10.32,0,0,0-9.8,7,75.66,75.66,0,0,1-78,51.15c-34.94-2.85-66.69-35-69.11-70a75.65,75.65,0,0,1,147.19-29.42,10.31,10.31,0,0,0,9.8,7h162.2A18.19,18.19,0,0,0,523.83,244.14Z"/></g></g></svg>