<?xml version="1.0" encoding="UTF-8"?>
<svg width="48px" height="48px" viewBox="0 0 48 48" version="1.1" xmlns="http://www.w3.org/2000/svg" xmlns:xlink="http://www.w3.org/1999/xlink">
    <title>EventBridge-48</title>
    <g id="EventBridge-48" stroke="none" stroke-width="1" fill="none" fill-rule="evenodd">
        <rect id="Rectangle-Copy" fill="#444444" opacity="0" x="0" y="0" width="48" height="48"></rect>
        <g id="Group" transform="translate(1.000000, 1.000000)" fill="#00A4FF" fill-rule="nonzero">
            <path d="M23.1009411,44 C11.4711238,44 2.00877748,34.579 2.00877748,23 C2.00877748,11.421 11.4711238,2 23.1009411,2 C33.7052774,2 42.4826306,9.84 43.9520514,20 L45.9989956,20 C44.5225442,8.716 34.8372235,0 23.1009411,0 C10.3421909,0 0,10.297 0,23 C0,35.703 10.3421909,46 23.1009411,46 C34.8372235,46 44.5225442,37.284 46,26 L43.9530557,26 C42.4816262,36.16 33.7052774,44 23.1009411,44 Z" id="Shape"></path>
        </g>
        <g id="编组" transform="translate(12.213635, 8.933013)" fill="#00A4FF">
            <path d="M2.741,10.4003788 L3.894,12.3973788 L2.30972421,15.1317539 L7.04022421,23.3252203 L10.2,23.3183788 L11.353,25.3163788 L5.88750004,25.3269585 L0,15.1295093 L2.741,10.4003788 Z M17.7346943,4.89037876 L23.6221943,15.087828 L20.88,19.8173788 L19.726,17.8193788 L21.3114568,15.0857203 L16.5809568,6.89225391 L13.42,6.89737876 L12.266,4.89937876 L17.7346943,4.89037876 Z" id="形状结合" fill-rule="nonzero"></path>
            <g id="编组-2备份-3" transform="translate(12.036365, 15.000000) rotate(-30.000000) translate(-12.036365, -15.000000) translate(6.036365, 2.000000)">
                <path d="M6.749,16.8479873 L6.75,20.5669873 L4.75,20.5669873 L4.749,16.8479873 L6.749,16.8479873 Z M6.75,2.5669873 L6.749,9.8659873 L4.749,9.8659873 L4.75,2.5669873 L6.75,2.5669873 Z" id="形状" fill-rule="nonzero"></path>
                <path d="M5.75,8.0669873 L10.080127,10.5669873 L10.080127,15.5669873 L5.75,18.0669873 L1.41987298,15.5669873 L1.41987298,10.5669873 L5.75,8.0669873 Z M5.749,10.376 L3.419,11.722 L3.419,14.411 L5.749,15.757 L8.08,14.411 L8.08,11.722 L5.749,10.376 Z" id="多边形备份" fill-rule="nonzero"></path>
                <path d="M5.75,6.0669873 C6.8545695,6.0669873 7.75,5.1715568 7.75,4.0669873 C7.75,2.9624178 6.8545695,2.0669873 5.75,2.0669873 C4.6454305,2.0669873 3.75,2.9624178 3.75,4.0669873 C3.75,5.1715568 4.6454305,6.0669873 5.75,6.0669873 Z" id="椭圆形"></path>
                <path d="M5.75,24.0669873 C6.8545695,24.0669873 7.75,23.1715568 7.75,22.0669873 C7.75,20.9624178 6.8545695,20.0669873 5.75,20.0669873 C4.6454305,20.0669873 3.75,20.9624178 3.75,22.0669873 C3.75,23.1715568 4.6454305,24.0669873 5.75,24.0669873 Z" id="椭圆形备份-2"></path>
            </g>
        </g>
    </g>
</svg>
