<svg width="300" height="101" viewBox="0 0 300 101" fill="none" xmlns="http://www.w3.org/2000/svg">
<path d="M113.122 35.8269L121.978 62.0479L130.856 35.6458C131.318 34.264 131.664 33.2994 131.895 32.7521C132.153 32.1776 132.547 31.6749 133.044 31.2881C133.674 30.8225 134.447 30.5917 135.229 30.6357C135.887 30.6329 136.534 30.8065 137.102 31.1383C137.664 31.4636 138.132 31.928 138.463 32.4868C138.778 32.9966 138.947 33.5827 138.953 34.1818C138.95 34.6088 138.897 35.0341 138.797 35.4492C138.693 35.902 138.558 36.3473 138.394 36.7821C138.238 37.2191 138.082 37.6655 137.917 38.1306L128.446 63.6774C128.112 64.6513 127.778 65.5815 127.434 66.4649C127.133 67.2792 126.739 68.0563 126.261 68.7811C125.808 69.4593 125.202 70.0209 124.491 70.4199C123.662 70.8625 122.73 71.0768 121.791 71.0411C120.849 71.0734 119.916 70.8581 119.084 70.4168C118.364 70.0175 117.751 69.4512 117.296 68.7655C116.816 68.0331 116.418 67.2501 116.109 66.4306C115.775 65.5597 115.432 64.6357 115.098 63.6618L105.79 38.3272C105.627 37.8652 105.477 37.4126 105.299 36.9662C105.117 36.4982 104.974 36.0158 104.872 35.5241C104.766 35.098 104.707 34.6614 104.697 34.2224C104.702 33.7541 104.802 33.2917 104.989 32.8627C105.177 32.4337 105.449 32.0468 105.79 31.7251C106.144 31.3588 106.572 31.0702 107.044 30.8778C107.516 30.6854 108.024 30.5934 108.533 30.6076C109.888 30.6076 110.843 31.0166 111.402 31.8562C111.961 32.6959 112.551 34.0132 113.122 35.8269Z" fill="#10151C"/>
<path d="M168.876 30.6294C172.93 30.6294 176.409 31.4515 179.315 33.0955C182.183 34.6972 184.486 37.1473 185.907 40.1096C187.406 43.1396 188.153 46.6982 188.149 50.7853C188.182 53.5817 187.77 56.3656 186.928 59.0325C186.16 61.4065 184.905 63.5944 183.245 65.4566C181.582 67.2876 179.519 68.7096 177.217 69.6114C174.844 70.576 172.11 71.0411 169.051 71.0411C166.242 71.0891 163.451 70.5865 160.835 69.5615C158.527 68.6485 156.457 67.2224 154.782 65.3911C153.117 63.5126 151.868 61.3031 151.118 58.9076C150.269 56.2631 149.848 53.5002 149.869 50.7229C149.836 47.9148 150.273 45.121 151.161 42.457C151.942 40.0825 153.219 37.9012 154.907 36.0578C156.567 34.2722 158.61 32.8849 160.882 31.9998C163.435 31.0398 166.148 30.5747 168.876 30.6294ZM180.114 50.7354C180.114 47.8719 179.653 45.3923 178.731 43.2967C177.794 41.199 176.49 39.607 174.77 38.5332C172.996 37.4416 170.946 36.8815 168.864 36.9194C167.36 36.9068 165.871 37.211 164.493 37.8121C163.153 38.4044 161.966 39.2948 161.022 40.4155C159.972 41.7031 159.193 43.1895 158.731 44.7857C158.148 46.7185 157.865 48.7293 157.891 50.7479C157.866 52.7869 158.149 54.8181 158.731 56.7725C159.206 58.4099 160.013 59.9317 161.103 61.2425C162.064 62.3767 163.266 63.2821 164.621 63.8927C166.216 64.5673 167.946 64.8593 169.673 64.7455C171.401 64.6316 173.078 64.1151 174.57 63.2372C176.266 62.2258 177.619 60.665 178.628 58.5549C179.637 56.4447 180.137 53.8434 180.126 50.751L180.114 50.7354Z" fill="#10151C"/>
<path d="M200.866 62.7878L209.606 50.0144L202.249 38.6519C201.658 37.7463 201.137 36.7978 200.688 35.8144C200.358 35.0993 200.183 34.3229 200.173 33.5357C200.181 33.1472 200.275 32.7654 200.447 32.4174C200.62 32.0694 200.867 31.7637 201.172 31.5223C201.842 30.9242 202.715 30.6049 203.613 30.6295C204.712 30.6295 205.567 30.9417 206.182 31.6034C206.797 32.2652 207.643 33.4545 208.729 35.2119L214.598 44.7077L220.869 35.2119L222.189 33.1642C222.499 32.6638 222.85 32.1898 223.238 31.747C223.556 31.3922 223.944 31.1073 224.377 30.9104C224.836 30.7145 225.331 30.6187 225.829 30.6295C226.728 30.5957 227.605 30.9163 228.27 31.5223C228.568 31.7886 228.805 32.1155 228.967 32.481C229.128 32.8465 229.21 33.2422 229.206 33.6418C229.206 34.8342 228.523 36.4512 227.159 38.4958L219.452 50.0144L227.736 62.7878C228.347 63.675 228.891 64.6068 229.363 65.5753C229.679 66.2294 229.852 66.9435 229.871 67.6699C229.874 68.2691 229.718 68.8584 229.419 69.3774C229.112 69.8938 228.669 70.316 228.139 70.5979C227.564 70.9088 226.919 71.0658 226.266 71.0536C225.604 71.0741 224.949 70.9132 224.371 70.5885C223.877 70.2949 223.451 69.899 223.123 69.4273C222.804 68.9653 222.208 68.0684 221.334 66.7365L214.466 55.9078L207.162 67.0549C206.591 67.9414 206.188 68.5689 205.948 68.9279C205.693 69.3012 205.404 69.6493 205.083 69.9673C204.74 70.3103 204.333 70.5819 203.884 70.7664C203.368 70.9739 202.814 71.0738 202.258 71.0599C201.377 71.0891 200.52 70.7745 199.867 70.1827C199.243 69.5927 198.93 68.7437 198.93 67.6199C198.924 66.3026 199.57 64.6888 200.866 62.7878Z" fill="#10151C"/>
<path d="M244.636 66.2277V35.4304C244.636 33.826 244.995 32.621 245.729 31.8282C246.084 31.4345 246.521 31.1233 247.009 30.9162C247.497 30.7092 248.024 30.6113 248.554 30.6295C249.093 30.6093 249.63 30.7047 250.129 30.9093C250.628 31.1139 251.078 31.4229 251.447 31.8157C252.187 32.6054 252.552 33.8072 252.552 35.4304V66.2277C252.552 67.8478 252.187 69.0527 251.447 69.8549C251.08 70.2517 250.631 70.5643 250.132 70.7712C249.632 70.9781 249.094 71.0745 248.554 71.0536C248.026 71.0667 247.501 70.9652 247.016 70.7561C246.531 70.547 246.097 70.2353 245.744 69.8424C245.001 69.034 244.636 67.829 244.636 66.2277Z" fill="#10151C"/>
<path d="M295.63 37.4032H277.79V47.0051H294.225C295.436 47.0051 296.336 47.2705 296.932 47.8167C297.228 48.0869 297.462 48.4185 297.616 48.7884C297.771 49.1583 297.843 49.5575 297.828 49.9581C297.845 50.3642 297.774 50.7693 297.622 51.1461C297.47 51.523 297.239 51.8629 296.944 52.1432C296.36 52.7082 295.455 52.986 294.225 52.986H277.803V64.1019H296.251C297.5 64.1019 298.436 64.3911 299.061 64.9697C299.374 65.2647 299.619 65.6238 299.781 66.0224C299.943 66.4211 300.016 66.8499 299.997 67.2796C300.012 67.6996 299.936 68.1179 299.775 68.5058C299.613 68.8937 299.369 69.2421 299.061 69.5271C298.436 70.1046 297.5 70.398 296.251 70.398H274.734C273.009 70.398 271.769 70.0151 271.013 69.2493C270.258 68.4835 269.879 67.2442 269.877 65.5315V36.1484C269.841 35.1929 270.016 34.2411 270.389 33.3608C270.707 32.664 271.271 32.1085 271.972 31.8C272.847 31.4411 273.789 31.2719 274.734 31.3037H295.649C296.897 31.3037 297.834 31.5815 298.458 32.1403C298.75 32.4304 298.982 32.7755 299.14 33.1556C299.298 33.5357 299.38 33.9433 299.38 34.355C299.38 34.7667 299.298 35.1744 299.14 35.5545C298.982 35.9346 298.75 36.2796 298.458 36.5698C297.828 37.1254 296.888 37.4032 295.63 37.4032Z" fill="#10151C"/>
<path d="M64.3883 12H18.2798C15.879 12 13.5017 12.4729 11.2837 13.3918C9.0657 14.3106 7.05041 15.6574 5.35293 17.3551C3.65545 19.0529 2.30904 21.0684 1.39057 23.2866C0.472109 25.5048 -0.000409707 27.8821 2.66551e-07 30.2829V70.0235C2.66551e-07 74.8716 1.9259 79.5211 5.35404 82.9492C8.78217 86.3774 13.4317 88.3033 18.2798 88.3033V100.24L33.8533 88.3033H64.3789C69.2271 88.3033 73.8766 86.3774 77.3047 82.9492C80.7329 79.5211 82.6588 74.8716 82.6588 70.0235V30.2829C82.6596 25.4359 80.7353 20.787 77.3091 17.3585C73.8829 13.9299 69.2353 12.0025 64.3883 12Z" fill="#14ABE0"/>
<path d="M31.0782 35.8768C30.2255 34.4007 28.8216 33.3236 27.175 32.8822C25.5284 32.4409 23.774 32.6714 22.2973 33.5231L21.4014 34.0507C19.9259 34.9039 18.8494 36.3081 18.4087 37.9546C17.9679 39.6012 18.1989 41.3553 19.0509 42.8316L32.049 65.3474C33.1511 67.2555 34.966 68.6477 37.0944 69.2178C39.2229 69.788 41.4907 69.4894 43.399 68.3878L48.2499 65.5784L31.0782 35.8768Z" fill="white"/>
<path d="M61.2231 34.0912L60.3084 33.5605C58.8322 32.7089 57.0783 32.4785 55.4322 32.9199C53.7861 33.3612 52.3827 34.4383 51.5306 35.9142L34.3777 65.6251L39.2286 68.4345C40.1733 68.9799 41.2161 69.3339 42.2976 69.4763C43.3791 69.6187 44.478 69.5467 45.5317 69.2643C46.5853 68.982 47.5731 68.4949 48.4385 67.8309C49.3039 67.1668 50.03 66.3388 50.5754 65.3941L63.5767 42.8784C63.9998 42.147 64.2746 41.3394 64.3853 40.5018C64.496 39.6642 64.4405 38.8129 64.2219 37.9968C64.0032 37.1806 63.6259 36.4156 63.1113 35.7454C62.5967 35.0752 61.9551 34.5131 61.2231 34.0912Z" fill="url(#paint0_linear_1191_118)"/>
<path d="M57.2992 32.8114C55.9161 32.8133 54.5645 33.2249 53.4152 33.9943C52.2659 34.7638 51.3703 35.8565 50.8416 37.1346C50.3129 38.4127 50.1747 39.8187 50.4445 41.1753C50.7144 42.5318 51.3801 43.778 52.3577 44.7564C53.3353 45.7349 54.5808 46.4017 55.9371 46.6728C57.2934 46.9438 58.6996 46.8069 59.9782 46.2793C61.2567 45.7517 62.3502 44.8571 63.1207 43.7085C63.8912 42.5598 64.304 41.2087 64.3071 39.8255C64.3092 38.9044 64.1293 37.9919 63.778 37.1404C63.4266 36.2888 62.9106 35.5151 62.2595 34.8634C61.6084 34.2118 60.8351 33.6951 59.9839 33.3429C59.1327 32.9908 58.2204 32.8102 57.2992 32.8114Z" fill="white"/>
<defs>
<linearGradient id="paint0_linear_1191_118" x1="44.1357" y1="64.0456" x2="56.6156" y2="38.8266" gradientUnits="userSpaceOnUse">
<stop stop-color="white" stop-opacity="0"/>
<stop offset="0.28" stop-color="white" stop-opacity="0.05"/>
<stop offset="0.58" stop-color="white" stop-opacity="0.08"/>
<stop offset="0.62" stop-color="white" stop-opacity="0.1"/>
<stop offset="0.68" stop-color="white" stop-opacity="0.16"/>
<stop offset="0.74" stop-color="white" stop-opacity="0.26"/>
<stop offset="0.8" stop-color="white" stop-opacity="0.39"/>
<stop offset="0.87" stop-color="white" stop-opacity="0.57"/>
<stop offset="0.94" stop-color="white" stop-opacity="0.78"/>
<stop offset="1" stop-color="white"/>
</linearGradient>
</defs>
</svg>
